<?xml version="1.0" encoding="utf-8"?>
<!-- Generator: Adobe Illustrator 23.0.3, SVG Export Plug-In . SVG Version: 6.00 Build 0)  -->
<svg version="1.1" id="Layer_1" xmlns="http://www.w3.org/2000/svg" xmlns:xlink="http://www.w3.org/1999/xlink" x="0px" y="0px"
	 viewBox="0 0 354.3 467.7" style="enable-background:new 0 0 354.3 467.7;" xml:space="preserve">
<style type="text/css">
	.st0{fill:#817E7E;stroke:#302D2A;stroke-width:0.6782;stroke-linejoin:round;}
	.st1{fill:#FAFAFA;stroke:#302D2A;stroke-width:0.6782;stroke-linejoin:round;}
	.st2{fill:#AEAAA9;stroke:#302D2A;stroke-width:0.6782;stroke-linejoin:round;}
	.st3{fill:#FFFFFF;stroke:#302D2A;stroke-width:0.6782;stroke-linejoin:round;}
	.st4{fill:none;stroke:#302D2A;stroke-width:0.6782;stroke-linejoin:round;}
	.st5{fill:#F8F8F8;stroke:#302D2A;stroke-width:1.2;stroke-linejoin:round;}
	.st6{fill:#E63323;stroke:#302D2A;stroke-width:0.6782;stroke-miterlimit:10;}
	.st7{fill:#FFFFFF;}
	.st8{fill:#FFEE00;stroke:#302D2A;stroke-width:0.6782;stroke-linejoin:round;}
	.st9{fill:none;stroke:#555151;stroke-width:0.6782;stroke-linejoin:round;}
	.st10{fill:none;}
	.st11{fill:#BEE2E9;stroke:#302D2A;stroke-width:0.6782;stroke-miterlimit:10;}
	.st12{fill:#BEE2E9;}
	.st13{fill:#BEE2E9;stroke:#302D2A;stroke-width:0.6782;stroke-linejoin:round;}
	.st14{fill:none;stroke:#555151;stroke-width:0.6782;stroke-miterlimit:10;}
	.st15{fill:none;stroke:#302D2A;stroke-width:0.6782;stroke-miterlimit:10;}
	.st16{fill:#AEAAA9;}
	.st17{fill:#E63323;stroke:#302D2A;stroke-width:0.6782;stroke-linejoin:round;}
	.st18{fill:none;stroke:#383532;stroke-width:0.6782;stroke-linejoin:round;}
	.st19{fill:#AEAAA9;stroke:#302D2A;stroke-width:1.2;stroke-linejoin:round;}
	.st20{fill:none;stroke:#302D2A;stroke-width:0.6782;stroke-linecap:round;stroke-linejoin:round;}
	.st21{fill:#E4E3E3;stroke:#302D2A;stroke-width:0.6782;stroke-linejoin:round;}
	.st22{fill:#E4E3E3;stroke:#302D2A;stroke-width:0.6782;stroke-miterlimit:10;}
	.st23{fill:#6A6362;stroke:#302D2A;stroke-width:0.6782;stroke-linejoin:round;}
</style>
<g>
	<g>
		<rect x="117.5" y="38.7" class="st0" width="121.3" height="7.5"/>
		<rect x="137.4" y="39.5" class="st0" width="81.5" height="8.6"/>
		<path class="st1" d="M250.4,10c-1.4,9.6-2.8,19.1-4.2,28.6c-0.4,2.6-2.8,4.6-5.8,4.7c-6.3,0.1-12.6,0.3-18.9,0.3
			c-14.6,0.2-29,0.3-43.3,0.3c-14.3,0-28.7-0.1-43.3-0.3c-6.3-0.1-12.6-0.2-18.9-0.3c-2.9-0.1-5.4-2-5.8-4.7
			c-1.4-9.6-2.8-19.1-4.2-28.6c1.1-1.6,3.1-4.1,6.4-6.4c2.5-1.7,4.9-2.7,6.7-3.2l1.6,1.7c6.9,6.7,17.5,6.6,19.2,6.6
			c0.1,0,0.1,0,0.2,0l3.2-0.4c1.5-0.2,1.8-1.7,0.7-2.4l-2.5-1.6c2.7-0.3,5.4-0.7,8.2-0.9c10.2-1,19.8-1.1,28.7-1.1
			c8.9,0,18.5,0.1,28.7,1.1c2.8,0.3,5.5,0.6,8.2,0.9l-2.5,1.6c-1.2,0.8-0.8,2.2,0.7,2.4l3.2,0.4c0.1,0,0.1,0,0.2,0
			c1.6,0.1,12.3,0.2,19.2-6.6l1.6-1.7c1.7,0.6,4.2,1.6,6.7,3.2C247.3,5.8,249.3,8.3,250.4,10z"/>
		<path class="st2" d="M136.9,34.1L136.9,34.1c-0.7,0.9-1.7,1.6-2.8,1.6l-13.9,0.4c-2.3,0.1-4.1-2-3.3-4l1.1-2.8
			c0.6-1.4,2.1-2.2,3.8-1.9l12.8,2.2C136.9,30.1,138.1,32.4,136.9,34.1z"/>
		<path class="st3" d="M125.7,31.9c0-1.5-1.4-2.7-3.1-2.7c-1.7,0-3.1,1.2-3.1,2.7s1.4,2.7,3.1,2.7C124.2,34.6,125.7,33.4,125.7,31.9
			z"/>
		<path class="st2" d="M178.1,22.6c8.9,0.2,19.6-0.4,31.1-2.8c1.6-0.3,3.1-0.6,4.6-0.9c1.9-0.4,2.7-2.2,1.6-3.5
			c-0.9-0.9-2-2.1-3.4-3.1l-0.1-0.1c-4-3.1-9.3-4.8-14.9-5c-0.4,0-0.9,0-1.3,0c-6.1-0.1-11.9,0-17.5,0c-5.6,0-11.5-0.1-17.5,0
			c-0.4,0-0.9,0-1.3,0c-5.6,0.2-11,1.9-14.9,5l-0.1,0.1c-1.4,1-2.4,2.1-3.4,3.1c-1.2,1.3-0.4,3.1,1.6,3.5c1.5,0.3,3,0.7,4.6,0.9
			C158.5,22.2,169.2,22.8,178.1,22.6z"/>
		<path class="st2" d="M219.4,34.1L219.4,34.1c0.7,0.9,1.7,1.6,2.8,1.6l13.9,0.4c2.3,0.1,4.1-2,3.3-4l-1.1-2.8
			c-0.6-1.4-2.1-2.2-3.8-1.9l-12.8,2.2C219.4,30.1,218.3,32.4,219.4,34.1z"/>
		<path class="st3" d="M230.7,31.9c0-1.5,1.4-2.7,3.1-2.7c1.7,0,3.1,1.2,3.1,2.7s-1.4,2.7-3.1,2.7C232,34.5,230.7,33.4,230.7,31.9z"
			/>
		<g>
			<path class="st2" d="M178.1,36.9c9.8,0,19.7-0.2,29.5-0.6c1.1,0,1.7-1.1,1.2-1.9c-0.4-0.6-0.9-1.2-1.3-1.8
				c-0.3-0.3-0.7-0.6-1.2-0.5c-9.4,0.3-18.8,0.5-28.2,0.6c-9.4,0-18.8-0.2-28.2-0.6c-0.5,0-1,0.2-1.2,0.5c-0.4,0.6-0.9,1.2-1.3,1.8
				c-0.6,0.8,0.1,1.8,1.2,1.9C158.4,36.6,168.3,36.9,178.1,36.9z"/>
			<path class="st4" d="M178.1,36.9c9.8,0,19.7-0.2,29.5-0.6c1.1,0,1.7-1.1,1.2-1.9c-0.4-0.6-0.9-1.2-1.3-1.8
				c-0.3-0.3-0.7-0.6-1.2-0.5c-9.4,0.3-18.8,0.5-28.2,0.6c-9.4,0-18.8-0.2-28.2-0.6c-0.5,0-1,0.2-1.2,0.5c-0.4,0.6-0.9,1.2-1.3,1.8
				c-0.6,0.8,0.1,1.8,1.2,1.9C158.4,36.6,168.3,36.9,178.1,36.9z"/>
		</g>
	</g>
	<g>
		<path class="st5" d="M178.1,403.3c-4.8,0-37,1.7-56.2-19.2c-7.5-8.1-11.2-17.6-11.2-17.6c-1.6-3.9,11.8-48.6,13.2-61.7
			c-0.5-19.4,3.9-43.5,3.8-63.5c-0.1-29.3-19.1-83.7-19.4-84.9c-0.3-1.6-0.7-3.2-1-4.9c-0.2-0.7-0.2-1.5-0.3-2.2
			c-0.4-12.8,0-23.6,0.5-31.6c1.8-29.1,6.2-37,7.9-39.7c5.6-9.3,12.9-14.2,18-17.6c17.4-11.5,34.9-11.8,44.6-11.7
			c9.7-0.1,27.2,0.3,44.6,11.7c5.1,3.4,12.4,8.3,18,17.6c1.6,2.8,6,10.7,7.9,39.7c0.5,8.1,0.9,18.8,0.5,31.6c0,0.7-0.1,1.5-0.3,2.2
			c-0.3,1.6-0.7,3.2-1,4.9c-0.3,1.2-17.6,55.6-17.7,84.9c-0.1,20,2.8,44.1,2.4,63.5c1.4,13.1,14.4,57.8,13,61.7
			c0,0-3.7,9.5-11.2,17.6C215.2,405,182.9,403.3,178.1,403.3z"/>
		<line class="st4" x1="238.3" y1="99" x2="247.9" y2="108.4"/>
		<path class="st4" d="M229.9,99.6c1.8,6.8,3.7,13.8,5.4,21.1c2.1,9.1,7.5,35.9,9.1,44.4"/>
		<path class="st6" d="M229.6,352.5c1.6,1.1,4.6,3.5,6.6,7.7c1.3,2.7,1.7,5.1,1.9,6.8c-0.8,2.1-1.9,4.5-3.5,7
			c-2.7,4.3-5.7,7.4-8.1,9.4c1.4-4.8,2.6-10.9,3.1-17.8C229.9,360.8,229.9,356.4,229.6,352.5z"/>
		<path class="st4" d="M238.1,367.1c0.1,1.8,0.1,3.9-0.2,6.2c-0.5,4.3-1.8,7.8-2.9,10.2"/>
		<path class="st4" d="M224.4,208.6c-1.9,19-3.5,39-4.6,59.7c-1.4,28.3-1.6,55.1-1.2,80.4c1.5,0.1,3.5,0.4,5.7,1.2
			c2.6,0.9,4.6,2.2,5.8,3.2"/>
		<path class="st4" d="M214.7,63.7c3.8,11.1,7.5,23.6,10.6,37.3c3.4,15,5.6,28.9,7.1,41.4"/>
		<path class="st4" d="M137.5,65.8c4.1-1.9,8.9-3.8,14.5-5.3c10.3-2.7,18.8-2.7,26.1-2.7c7.3-0.1,15.8-0.1,26.1,2.7
			c5.6,1.5,10.5,3.4,14.5,5.3"/>
		<g>
			<g>
				<path class="st7" d="M218.7,65.7c2.4,6.3,4.8,13,7.1,20.1c1.6,4.7,2.9,9.3,4.2,13.8c2.6,4.1,5.3,8.1,8,12.2
					c0.6-4.5,1-12.2-1.6-21C231.9,76.5,222.3,68.5,218.7,65.7z"/>
				<path class="st7" d="M137.7,65.7c-2.4,6.3-4.8,13-7.1,20.1c-1.6,4.7-2.9,9.3-4.2,13.8c-2.6,4.1-5.3,8.1-8,12.2
					c-0.6-4.5-1-12.2,1.6-21C124.3,76.5,134,68.5,137.7,65.7z"/>
			</g>
			<g>
				<path class="st8" d="M218.7,65.7c2.4,6.3,4.8,13,7.1,20.1c1.6,4.7,2.9,9.3,4.2,13.8c2.6,4.1,5.3,8.1,8,12.2
					c0.6-4.5,1-12.2-1.6-21C231.9,76.5,222.3,68.5,218.7,65.7z"/>
				<path class="st8" d="M137.7,65.7c-2.4,6.3-4.8,13-7.1,20.1c-1.6,4.7-2.9,9.3-4.2,13.8c-2.6,4.1-5.3,8.1-8,12.2
					c-0.6-4.5-1-12.2,1.6-21C124.3,76.5,134,68.5,137.7,65.7z"/>
			</g>
			<g>
				<path class="st9" d="M218.7,65.7c2.4,6.3,4.8,13,7.1,20.1c1.6,4.7,2.9,9.3,4.2,13.8c2.6,4.1,5.3,8.1,8,12.2
					c0.6-4.5,1-12.2-1.6-21C231.9,76.5,222.3,68.5,218.7,65.7z"/>
				<path class="st10" d="M137.7,65.7c-2.4,6.3-4.8,13-7.1,20.1c-1.6,4.7-2.9,9.3-4.2,13.8c-2.6,4.1-5.3,8.1-8,12.2
					c-0.6-4.5-1-12.2,1.6-21C124.3,76.5,134,68.5,137.7,65.7z"/>
			</g>
		</g>
		<line class="st4" x1="118" y1="99" x2="108.4" y2="108.4"/>
		<path class="st4" d="M126.4,99.6c-1.8,6.8-3.7,13.8-5.4,21.1c-2.1,9.1-8.2,35.9-9.9,44.4"/>
		<path class="st6" d="M126.7,352.5c-1.6,1.1-4.6,3.5-6.6,7.7c-1.3,2.7-1.7,5.1-1.9,6.8c0.8,2.1,1.9,4.5,3.5,7
			c2.7,4.3,5.7,7.4,8.1,9.4c-1.4-4.8-2.6-10.9-3.1-17.8C126.3,360.8,126.4,356.4,126.7,352.5z"/>
		<g>
			<path class="st11" d="M178.1,207c-9.9,0-20.2,0.2-30.7,0.7c-5.2,0.3-10.4,0.6-15.5,0.9c-2.7-20.4-5.3-40.8-8-61.1
				c-0.9-6.5,2-12.9,7.3-16.4c2.3-1.5,4.9-3,8.5-4.3c14.5-5.5,24.4-5.2,38.4-5.2s23.9-0.4,38.4,5.2c3.6,1.4,6.3,2.8,8.5,4.3
				c5.3,3.5,8.1,9.9,7.3,16.4c-2.7,20.4-5.3,40.8-8,61.1c-5-0.4-10.2-0.7-15.5-0.9C198.3,207.2,188,207,178.1,207z"/>
			<g>
				<g>
					<path class="st12" d="M178.1,389.3c-2.3,0-38.6,1.1-45.4-15.3c-0.6-1.4-1-3-1.1-4.8c1.4,0.8,2.8,1.6,4.3,2.4
						c14.7,7.7,29.9,9,42.2,9s27.4-1.3,42.2-9c1.5-0.8,2.9-1.6,4.3-2.4c-0.1,1.8-0.5,3.4-1.1,4.8
						C216.7,390.4,180.5,389.3,178.1,389.3z"/>
				</g>
				<g>
					<path class="st13" d="M178.1,389.3c-2.3,0-38.6,1.1-45.4-15.3c-0.6-1.4-1-3-1.1-4.8c1.4,0.8,2.8,1.6,4.3,2.4
						c14.7,7.7,29.9,9,42.2,9s27.4-1.3,42.2-9c1.5-0.8,2.9-1.6,4.3-2.4c-0.1,1.8-0.5,3.4-1.1,4.8
						C216.7,390.4,180.5,389.3,178.1,389.3z"/>
				</g>
				<g>
					<path class="st14" d="M178.1,389.3c-2.3,0-38.6,1.1-45.4-15.3c-0.6-1.4-1-3-1.1-4.8c1.4,0.8,2.8,1.6,4.3,2.4
						c14.7,7.7,29.9,9,42.2,9s27.4-1.3,42.2-9c1.5-0.8,2.9-1.6,4.3-2.4c-0.1,1.8-0.5,3.4-1.1,4.8
						C216.7,390.4,180.5,389.3,178.1,389.3z"/>
				</g>
			</g>
		</g>
		<path class="st4" d="M129.8,383.5c0.5,0.4,1.4,0.9,2.3,1.5c5.9,3.6,11.8,5.2,22.1,6.3c6.3,0.7,14.4,1.1,23.9,1.1
			c9.5,0,17.5-0.4,23.9-1.1c10.3-1.2,16.2-2.8,22.1-6.3c1-0.6,1.8-1.2,2.3-1.5"/>
		<path class="st4" d="M118.2,367.1c-0.1,1.8-0.1,3.9,0.2,6.2c0.5,4.3,1.8,7.8,2.9,10.2"/>
		<path class="st4" d="M132,208.6c1.9,19,3.5,39,4.6,59.7c1.4,28.3,1.6,55.1,1.2,80.4c-1.5,0.1-3.5,0.4-5.7,1.2
			c-2.6,0.9-4.6,2.2-5.8,3.2"/>
		<polyline class="st4" points="137.7,348.8 178.1,348.8 218.7,348.8 		"/>
		<path class="st4" d="M141.7,63.7c-3.8,11.1-7.5,23.6-10.6,37.3c-3.4,15-5.6,28.9-7.1,41.4"/>
		<path class="st4" d="M224.6,369.3c1.2-1.9,2.6-4.6,3.7-8.1c1-3.4,1.3-6.5,1.4-8.7"/>
		<path class="st4" d="M131.8,369.3c-1.2-1.9-2.6-4.6-3.7-8.1c-1-3.4-1.3-6.5-1.4-8.7"/>
	</g>
	<g>
		<path class="st0" d="M23.5,53.3c-3.1,16-6.1,32.2-9.2,48.2l1.8,266.4c3.8,8.4,7.6,17,11.3,25.4c18.6-3.1,32.9-18,35.2-35.8
			c2.9-21.7-12.5-44.1-35.9-48.2c-0.7-51.3-1.3-102.5-1.9-153.8c20.3,1.6,37.4-15.8,37.1-36.4c-0.3-20.5-17.7-37.2-37.8-35.3
			C24,73.7,23.8,63.4,23.5,53.3z"/>
		<path class="st5" d="M50.7,412.6c2-0.2,3.9-0.5,5.5-0.9c1.6-0.4,3-1.3,4.1-2.8c0.8-1,1.7-2.2,2.8-3.2c6.2-6,13.8-6.7,16.9-6.9
			c1.6-0.5,3.4-1.1,5.2-2.1c1.3-0.6,2.3-1.3,3.4-2c0.2-0.2,0.5-0.3,0.7-0.5c2.2-1.5,4.1-3.3,6.7-6.3c3-3.4,7.2-8.8,11.4-16.7
			c2,1.3,9.3,6,11,7c0.7-3,1.6-7.1,2.6-12.1c6.8-33.2,8-59.2,8.3-66.3c1.5-37.7-3.6-70.6-7.6-91c-1,0.7-2,1.4-3,2.2
			c-3.5-12.5-7.4-22.2-10.2-28.6c-8-18.5-14.4-25.9-18.4-42c-0.8-3.3-1.4-6.4-1.7-9.3l0,0l0,0c-0.8-5.2-1-9.8-1-13.1
			c-1.3-10.2-3.7-22.8-8.5-36.9c-5.2-14.7-11.4-26.6-17-35.5c-0.5-0.1-1.1-0.2-1.6-0.3c-1,1-2,2.2-3.4,3.2c-3.4,2.6-6.9,3.8-9.6,4.3
			c-1.5,0.3-2.9-0.2-3.9-1.2c-0.6-0.5-1.1-1.1-1.6-1.9c-1.3-1.6-2-3.2-2.5-4.4c-5.1,0.8-9.6,2.1-13.4,3.5c-2.5,0.9-4.3,3.4-4.5,6.3
			c-0.7,11.3-1.3,22.6-1.9,33.9c20.7-2.9,37.8,11.1,38.3,30.3c0.5,20.3-16.7,35.5-38.3,32.6v162.6c21-3.6,38.5,11.4,38.9,31.7
			c0.4,19.3-15.2,33.4-34.9,32.6c-0.7,12.5,1.9,17.6,4.4,20.2c1.1,1.1,2.3,2,5,4.6c2.1,2.1,4,4,5.4,5.8c1.7,2,4.1,3.2,6.6,3.3
			C46.7,412.8,48.7,412.8,50.7,412.6z"/>
		<path class="st4" d="M80.4,151c-0.3-3.1,3.6-4.5,5.1-1.9c11.7,19.2,27.1,50.5,33.5,92.2c7.4,48.1-0.7,87.3-6.7,108.6
			c-0.5,1.7-2.4,2.7-4,1.9c-1.7-0.9-3.6-2.2-5.5-3.7c-2.7-2.3-4.8-4.5-6.2-6.5c-0.4-0.4-0.6-1-0.6-1.6C90.9,277,85.6,214,80.4,151z"
			/>
		<g>
			<path class="st11" d="M96.1,388.1c-2.6,3-4.5,4.7-6.7,6.3c-0.2,0.2-0.5,0.3-0.7,0.5c4.8-2.3,10.7-5.7,16.4-10.6
				c3.4-3,6.3-6,8.5-8.8c-2-1.3-4.1-2.6-6.1-3.9C103.3,379.3,99,384.7,96.1,388.1z"/>
			<path class="st11" d="M108.6,182.7c2.8,6.5,6.7,16.1,10.2,28.6c1-0.7,2-1.4,3-2.2c-4.4-12.4-9.4-25.5-15.2-39.2
				c-5.9-13.9-12.1-26.7-18.1-38.6c0.4,2.9,1,6,1.7,9.3C94.2,156.8,100.6,164.2,108.6,182.7z"/>
			<path class="st11" d="M118.3,255.8c-0.5-4.6-1.1-9.4-1.7-13.9c-4.9-32.2-16.4-63.6-33.2-91.1c-0.1-0.1-0.1-0.1-0.2-0.1
				c-0.2,0-0.2,0.1-0.2,0.2v0.1l8.1,99.1L118.3,255.8z"/>
			<g>
				<g>
					<path class="st12" d="M109.8,349.2c0.1,0,0.1-0.1,0.1-0.1c1.6-5.7,3-11.3,4.2-17.1l-14.9,8.4c1.6,2,3.3,3.7,5.2,5.2
						c1.6,1.3,3.4,2.5,5.1,3.5C109.7,349.2,109.7,349.3,109.8,349.2z"/>
					<path class="st12" d="M115.5,325c2.6-14.7,4-29.7,4-44.8c0-3.8-0.1-7.7-0.3-11.5l-26.7-2.9l5.5,67L115.5,325z"/>
				</g>
				<g>
					<path class="st15" d="M109.8,349.2c0.1,0,0.1-0.1,0.1-0.1c1.6-5.7,3-11.3,4.2-17.1l-14.9,8.4c1.6,2,3.3,3.7,5.2,5.2
						c1.6,1.3,3.4,2.5,5.1,3.5C109.7,349.2,109.7,349.3,109.8,349.2z"/>
					<path class="st15" d="M115.5,325c2.6-14.7,4-29.7,4-44.8c0-3.8-0.1-7.7-0.3-11.5l-26.7-2.9l5.5,67L115.5,325z"/>
				</g>
				<g>
					<path class="st14" d="M109.8,349.2c0.1,0,0.1-0.1,0.1-0.1c1.6-5.7,3-11.3,4.2-17.1l-14.9,8.4c1.6,2,3.3,3.7,5.2,5.2
						c1.6,1.3,3.4,2.5,5.1,3.5C109.7,349.2,109.7,349.3,109.8,349.2z"/>
					<path class="st14" d="M115.5,325c2.6-14.7,4-29.7,4-44.8c0-3.8-0.1-7.7-0.3-11.5l-26.7-2.9l5.5,67L115.5,325z"/>
				</g>
			</g>
		</g>
		<path class="st4" d="M75.1,243.7c0.9-0.1,1.3-4.5,0.9-10s-1.4-9.8-2.2-9.8c-0.9,0.1-1.3,4.5-0.9,10
			C73.2,239.3,74.2,243.8,75.1,243.7z"/>
		<path class="st4" d="M81.6,332.8c0.9-0.1,1.3-4.5,0.9-10c-0.4-5.4-1.4-9.8-2.2-9.8c-0.9,0.1-1.3,4.5-0.9,10
			C79.7,328.5,80.8,332.9,81.6,332.8z"/>
		<path class="st4" d="M81.3,160.9c-3.3-0.6-6.8-1.1-10.5-1.4c-16.9-1.6-31.8,0.4-43.8,3.4c0.6,30.9,1.1,61.9,1.6,92.8
			c16-1.4,35.1-1.9,56.5,0.5c13.4,1.5,25.6,3.9,36.5,6.6"/>
		<path class="st4" d="M118.3,326.8c-3.5,2-8.8,4.9-15.4,8.4c-4.4,2.4-9.7,5.2-10.6,5.7c-4.2,2.1-17.2,3.3-62.7-38.9
			c-0.3-15.4-0.6-30.8-1-46.3"/>
		<g>
			<path class="st2" d="M43.4,51.8c1.1,1,2.5,1.4,4,1.2c2.7-0.5,6.2-1.7,9.6-4.3c1.4-1,2.5-2.2,3.4-3.2c-4.1-0.6-8.8-1-14.3-0.7
				c-2.4,0.1-4.7,0.4-6.9,0.7c0.5,1.1,1.3,2.8,2.5,4.4C42.3,50.6,42.9,51.2,43.4,51.8z"/>
			<path class="st2" d="M33.9,57.3l2.2,9.9c0.4,1.6-0.6,3.2-2,3.7l-2.3,0.7c-1.8,0.6-3.8-0.7-3.9-2.8l-0.8-10.3
				c-0.1-1.4,0.7-2.8,2-3.2c0.3-0.1,0.6-0.2,0.9-0.3l0,0C31.7,54.4,33.5,55.5,33.9,57.3z"/>
		</g>
		<line class="st4" x1="67.9" y1="92.6" x2="55" y2="106.8"/>
		<line class="st4" x1="64.1" y1="58.4" x2="66.7" y2="53.9"/>
		<path class="st3" d="M53.8,363.7c0.1-0.2,14.5,20.6,14.5,20.6"/>
		<path class="st4" d="M123.9,351.2c-2.1,0.6-4.6,1.5-7.2,2.8c-4.3,2.1-7.6,4.5-10,6.7"/>
		<g>
			<g>
				<path class="st16" d="M106.7,360.8c-2.3,4.7-5.5,10.4-10,16.1c-6.8,8.7-14.1,14.7-19.5,18.4c2.5-7.2,5-14.5,7.6-21.7
					L106.7,360.8z"/>
				<path class="st16" d="M74.6,85.8c0-0.1,0-0.2,0-0.3c-1-4.6-2.5-10.3-5-16.3c-2.3-5.6-4.9-10.3-7.4-14.1
					c-0.5-0.7-1.6-0.3-1.5,0.5c0.4,3.8,0.9,7.7,1.5,11.7c2.1,13.4,5.4,25.2,9,35.2c0.3,0.8,1.5,0.7,1.6-0.2
					C73.3,96.8,73.9,91.4,74.6,85.8z"/>
				<path class="st16" d="M32.2,69.1c1.6,0,3-0.6,3-1.3c0-0.7-1.4-1.3-3-1.3c-1.6,0-3,0.6-3,1.3C29.2,68.5,30.5,69.1,32.2,69.1z"/>
			</g>
			<g>
				<path class="st17" d="M106.7,360.8c-2.3,4.7-5.5,10.4-10,16.1c-6.8,8.7-14.1,14.7-19.5,18.4c2.5-7.2,5-14.5,7.6-21.7
					L106.7,360.8z"/>
				<path class="st8" d="M74.6,85.8c0-0.1,0-0.2,0-0.3c-1-4.6-2.5-10.3-5-16.3c-2.3-5.6-4.9-10.3-7.4-14.1c-0.5-0.7-1.6-0.3-1.5,0.5
					c0.4,3.8,0.9,7.7,1.5,11.7c2.1,13.4,5.4,25.2,9,35.2c0.3,0.8,1.5,0.7,1.6-0.2C73.3,96.8,73.9,91.4,74.6,85.8z"/>
				<path class="st3" d="M32.2,69.1c1.6,0,3-0.6,3-1.3c0-0.7-1.4-1.3-3-1.3c-1.6,0-3,0.6-3,1.3C29.2,68.5,30.5,69.1,32.2,69.1z"/>
			</g>
			<g>
				<path class="st18" d="M106.7,360.8c-2.3,4.7-5.5,10.4-10,16.1c-6.8,8.7-14.1,14.7-19.5,18.4c2.5-7.2,5-14.5,7.6-21.7
					L106.7,360.8z"/>
				<path class="st18" d="M74.6,85.8c0-0.1,0-0.2,0-0.3c-1-4.6-2.5-10.3-5-16.3c-2.3-5.6-4.9-10.3-7.4-14.1
					c-0.5-0.7-1.6-0.3-1.5,0.5c0.4,3.8,0.9,7.7,1.5,11.7c2.1,13.4,5.4,25.2,9,35.2c0.3,0.8,1.5,0.7,1.6-0.2
					C73.3,96.8,73.9,91.4,74.6,85.8z"/>
				<path class="st18" d="M32.2,69.1c1.6,0,3-0.6,3-1.3c0-0.7-1.4-1.3-3-1.3c-1.6,0-3,0.6-3,1.3C29.2,68.5,30.5,69.1,32.2,69.1z"/>
			</g>
		</g>
		<path class="st4" d="M74.6,85.7c0.9,4.7,2,11.8,3.1,20.6c0.7,5.2,1,8.6,1.3,12.1c0.7,7,1.8,17,4.1,29.4"/>
		<path class="st4" d="M84.7,373.6c-3.3,1-10.3,3.7-16.3,10.6c-9,10.4-9.3,22.9-9.3,26"/>
		<path class="st4" d="M61.4,99.7c4.9,37.3,13.5,115.7,16.8,156.8c3.3,40.7,5.4,79.8,6.6,117.1"/>
		<g>
			<g>
				<ellipse class="st19" cx="29.2" cy="120.7" rx="25.8" ry="28"/>
				<ellipse class="st3" cx="29.2" cy="120.7" rx="19.6" ry="21.3"/>
				<path class="st20" d="M29.4,122.9c-1.2,0-2-1-2-2.3c0-1.2,0.9-2.3,2-2.3s2,1,2,2.3C31.4,121.8,30.5,122.9,29.4,122.9z"/>
				<path class="st21" d="M11.5,120.7c0,0.7,0,1.4,0.2,2.4c0,0.3,0.1,0.6,0.2,0.9c0.1,0.3,0.3,0.6,0.5,0.9l1.4,1.1
					c0.6,0.4,1.3,0.4,1.8,0l4.8-4.1c0.8-0.6,0.8-1.9,0-2.5l-4.8-4.1c-0.6-0.4-1.3-0.4-1.8,0l-1.4,1.1c-0.3,0.2-0.5,0.5-0.5,0.9
					c-0.1,0.3-0.1,0.6-0.2,0.9C11.5,119.2,11.5,120,11.5,120.7z"/>
				<path class="st21" d="M23.9,138.5c0.6,0.2,1.4,0.4,2.1,0.6c0.3,0,0.6,0.1,0.9,0.1c0.3,0,0.7-0.1,1-0.3l1.5-1
					c0.6-0.4,0.8-1.1,0.6-1.9l-2.1-6.1c-0.3-0.9-1.4-1.3-2.2-0.7l-5.1,3.6c-0.6,0.4-0.8,1.1-0.6,1.9l0.6,1.7
					c0.1,0.3,0.3,0.6,0.6,0.8c0.2,0.1,0.5,0.3,0.8,0.4C22.5,138.1,23.2,138.3,23.9,138.5z"/>
				<path class="st21" d="M43.4,132c0.4-0.5,0.9-1.2,1.3-2c0.1-0.3,0.3-0.5,0.4-0.8c0.1-0.3,0.2-0.7,0.1-1l-0.5-1.9
					c-0.2-0.7-0.8-1.1-1.5-1.1l-6.2,0.2c-1,0-1.6,1-1.4,2l1.6,6.4c0.2,0.7,0.8,1.2,1.5,1.1h1.7c0.3,0,0.7-0.1,0.9-0.4
					c0.2-0.2,0.4-0.4,0.6-0.6C42.6,133.1,43.1,132.5,43.4,132z"/>
				<path class="st21" d="M43.3,109.4c-0.4-0.5-0.9-1.1-1.5-1.9c-0.2-0.2-0.4-0.4-0.6-0.6c-0.3-0.2-0.6-0.3-0.9-0.4h-1.7
					c-0.7,0-1.3,0.5-1.5,1.1l-1.6,6.4c-0.2,0.9,0.5,2,1.4,2l6.2,0.2c0.7,0,1.3-0.4,1.5-1.1l0.5-1.9c0.1-0.3,0.1-0.7-0.1-1
					c-0.1-0.3-0.2-0.5-0.4-0.8C44.2,110.6,43.7,109.9,43.3,109.4z"/>
				<path class="st21" d="M23.8,102.7c-0.6,0.2-1.4,0.5-2.1,0.9c-0.3,0.1-0.5,0.3-0.8,0.4c-0.3,0.2-0.5,0.4-0.6,0.8l-0.6,1.7
					c-0.2,0.7,0,1.4,0.6,1.9l5.1,3.6c0.8,0.5,1.8,0.2,2.2-0.7l2.1-6.2c0.2-0.7,0-1.4-0.6-1.9l-1.5-1c-0.3-0.2-0.6-0.3-1-0.2
					c-0.3,0-0.6,0.1-0.9,0.1C25.1,102.3,24.4,102.5,23.8,102.7z"/>
			</g>
			<g>
				<ellipse class="st19" cx="29.2" cy="346.9" rx="25.8" ry="28"/>
				<ellipse class="st3" cx="29.2" cy="346.9" rx="19.6" ry="21.3"/>
				<path class="st20" d="M29.3,349.1c-1.2,0-2-1-2-2.3s0.9-2.3,2-2.3s2,1,2,2.3C31.3,348.1,30.5,349.1,29.3,349.1z"/>
				<path class="st21" d="M11.4,346.9c0,0.7,0,1.4,0.2,2.4c0,0.3,0.1,0.6,0.2,0.9c0.1,0.3,0.3,0.6,0.5,0.9l1.4,1.1
					c0.6,0.4,1.3,0.4,1.8,0l4.8-4.1c0.8-0.6,0.8-1.9,0-2.5l-4.8-4.1c-0.6-0.4-1.3-0.4-1.8,0l-1.4,1.1c-0.3,0.2-0.5,0.5-0.5,0.9
					c-0.1,0.3-0.1,0.6-0.2,0.9C11.4,345.4,11.4,346.3,11.4,346.9z"/>
				<path class="st21" d="M23.8,364.8c0.6,0.2,1.4,0.4,2.1,0.6c0.3,0,0.6,0.1,0.9,0.1s0.7-0.1,1-0.3l1.5-1c0.6-0.4,0.8-1.1,0.6-1.9
					l-2.1-6.1c-0.3-0.9-1.4-1.3-2.2-0.7l-5.1,3.6c-0.6,0.4-0.8,1.1-0.6,1.9l0.6,1.7c0.1,0.3,0.3,0.6,0.6,0.8
					c0.2,0.1,0.5,0.3,0.8,0.4C22.4,364.3,23.1,364.6,23.8,364.8z"/>
				<path class="st21" d="M43.3,358.3c0.4-0.5,0.9-1.2,1.3-2c0.1-0.3,0.3-0.5,0.4-0.8c0.1-0.3,0.2-0.7,0.1-1l-0.5-1.9
					c-0.2-0.7-0.8-1.1-1.5-1.1l-6.2,0.2c-1,0-1.6,1-1.4,2l1.6,6.4c0.2,0.7,0.8,1.2,1.5,1.1h1.7c0.3,0,0.7-0.1,0.9-0.4
					c0.2-0.2,0.4-0.4,0.6-0.6C42.5,359.4,43,358.8,43.3,358.3z"/>
				<path class="st21" d="M43.3,335.7c-0.4-0.5-0.9-1.1-1.5-1.9c-0.2-0.2-0.4-0.4-0.6-0.6c-0.3-0.2-0.6-0.3-0.9-0.4h-1.7
					c-0.7,0-1.3,0.5-1.5,1.1l-1.6,6.4c-0.2,0.9,0.5,2,1.4,2l6.2,0.2c0.7,0,1.3-0.4,1.5-1.1l0.5-1.9c0.1-0.3,0.1-0.7-0.1-1
					c-0.1-0.3-0.2-0.5-0.4-0.8C44.1,336.9,43.6,336.2,43.3,335.7z"/>
				<path class="st21" d="M23.8,329c-0.6,0.2-1.4,0.5-2.1,0.9c-0.3,0.1-0.5,0.3-0.8,0.4c-0.3,0.2-0.5,0.4-0.6,0.8l-0.6,1.7
					c-0.2,0.7,0,1.4,0.6,1.9l5.1,3.6c0.8,0.5,1.8,0.2,2.2-0.7l2.1-6.2c0.2-0.7,0-1.4-0.6-1.9l-1.5-1c-0.3-0.2-0.6-0.3-1-0.2
					c-0.3,0-0.6,0.1-0.9,0.1C25,328.6,24.3,328.8,23.8,329z"/>
			</g>
		</g>
		<g>
			<path class="st22" d="M84.8,167.7l-3.2,4.9c-1.6-2.1-3.1-4.1-4.7-6.1c0-0.1-0.3-1.5,0.7-2.7c0.8-0.9,1.9-0.9,2.1-1L84.8,167.7"/>
			<path class="st2" d="M91.6,180.2c0.2-1.3,0.2-2.9,0.1-4.2c-0.1-3.6-0.2-7.6-2.3-9c-1.6-1.1-3.8-0.3-5,0.7
				c-2.5,2.2-3.4,6.9-2.2,10.2C85.3,178.5,88.4,179.3,91.6,180.2z"/>
		</g>
	</g>
	<g>
		<path class="st0" d="M334.1,53.3c3.1,16.1,6.1,32.4,9.2,48.5l-1.8,267.8c-3.8,8.5-7.6,17.1-11.3,25.5c-18.6-3.1-32.9-18.1-35.2-36
			c-2.9-21.8,12.5-44.3,35.9-48.5c0.7-51.6,1.3-103,1.9-154.6c-20.3,1.7-37.4-15.9-37.1-36.6c0.3-20.6,17.7-37.4,37.8-35.5
			C333.6,73.9,333.8,63.5,334.1,53.3z"/>
		<path class="st5" d="M306.9,414.5c-2-0.2-3.9-0.5-5.5-0.9c-1.6-0.4-3-1.3-4.1-2.8c-0.8-1-1.7-2.2-2.8-3.2
			c-6.2-6-13.8-6.7-16.9-6.9c-1.6-0.5-3.4-1.1-5.2-2.1c-1.3-0.6-2.3-1.3-3.4-2c-0.2-0.2-0.5-0.3-0.7-0.5c-2.2-1.6-4.1-3.3-6.7-6.3
			c-3-3.4-7.2-8.9-11.4-16.7c-2,1.3-9.3,6-11,7c-0.7-3-1.6-7.1-2.6-12.2c-6.8-33.4-8-59.5-8.3-66.7c-1.5-37.9,3.6-71,7.6-91.5
			c1,0.7,2,1.4,3,2.2c3.5-12.6,7.4-22.3,10.2-28.7c8-18.6,14.4-26,18.4-42.3c0.8-3.3,1.4-6.4,1.7-9.3l0,0l0,0c0.8-5.3,1-9.8,1-13.1
			c1.3-10.2,3.7-22.9,8.5-37.1c5.1-15,11.4-27,16.9-35.9c0.5-0.1,1.1-0.2,1.6-0.3c1,1,2,2.2,3.4,3.2c3.4,2.6,6.9,3.8,9.6,4.3
			c1.5,0.3,2.9-0.2,3.9-1.2c0.6-0.5,1.1-1.1,1.6-1.9c1.3-1.7,2-3.2,2.5-4.4c5.1,0.8,9.6,2.1,13.4,3.5c2.5,0.9,4.3,3.4,4.5,6.3
			c0.7,11.4,1.3,22.7,1.9,34.1c-20.7-2.9-37.8,11.2-38.3,30.5c-0.5,20.4,16.7,35.7,38.3,32.8v163.7c-21-3.6-38.5,11.5-38.9,31.8
			c-0.4,19.4,15.2,33.6,34.9,32.8c0.7,12.6-1.9,17.7-4.4,20.3c-1.1,1.1-2.3,2-5,4.7c-2.1,2.1-4,4-5.4,5.8c-1.7,2-4.1,3.2-6.6,3.3
			C310.9,414.7,308.9,414.7,306.9,414.5z"/>
		<path class="st4" d="M277.2,151.6c0.3-3.1-3.6-4.5-5.1-1.9c-11.7,19.3-27.1,50.7-33.5,92.7c-7.4,48.4,0.7,87.7,6.7,109.1
			c0.5,1.8,2.4,2.7,4,1.9c1.7-0.9,3.6-2.2,5.5-3.7c2.7-2.3,4.8-4.5,6.2-6.5c0.4-0.4,0.6-1,0.6-1.7
			C266.7,278.2,272,214.9,277.2,151.6z"/>
		<g>
			<path class="st11" d="M261.5,389.9c2.6,3,4.5,4.8,6.7,6.3c0.2,0.2,0.5,0.3,0.7,0.5c-4.8-2.3-10.7-5.7-16.4-10.6
				c-3.4-3-6.3-6-8.5-8.9c2-1.3,4.1-2.6,6.1-3.9C254.3,381,258.6,386.5,261.5,389.9z"/>
			<path class="st11" d="M249,183.4c-2.8,6.5-6.7,16.2-10.2,28.7c-1-0.7-2-1.4-3-2.2c4.4-12.5,9.4-25.6,15.2-39.4
				c5.9-14,12.1-26.9,18.1-38.8c-0.4,2.9-1,6-1.7,9.3C263.4,157.4,257,164.8,249,183.4z"/>
			<path class="st11" d="M239.3,256.9c0.5-4.7,1.1-9.4,1.7-14c4.9-32.4,16.4-64,33.2-91.6c0.1-0.1,0.1-0.1,0.2-0.1
				c0.2,0,0.2,0.1,0.2,0.2v0.1l-8.1,99.6L239.3,256.9z"/>
			<g>
				<g>
					<path class="st12" d="M247.8,350.9c-0.1,0-0.1-0.1-0.1-0.1c-1.6-5.7-3-11.4-4.2-17.2l14.9,8.5c-1.6,2-3.3,3.7-5.2,5.3
						c-1.6,1.3-3.4,2.5-5.1,3.5C247.9,350.9,247.9,351,247.8,350.9z"/>
					<path class="st12" d="M242.1,326.5c-2.6-14.8-4-29.9-4-45.1c0-3.8,0.1-7.8,0.3-11.6l26.7-2.9l-5.5,67.4L242.1,326.5z"/>
				</g>
				<g>
					<path class="st15" d="M247.8,350.9c-0.1,0-0.1-0.1-0.1-0.1c-1.6-5.7-3-11.4-4.2-17.2l14.9,8.5c-1.6,2-3.3,3.7-5.2,5.3
						c-1.6,1.3-3.4,2.5-5.1,3.5C247.9,350.9,247.9,351,247.8,350.9z"/>
					<path class="st15" d="M242.1,326.5c-2.6-14.8-4-29.9-4-45.1c0-3.8,0.1-7.8,0.3-11.6l26.7-2.9l-5.5,67.4L242.1,326.5z"/>
				</g>
				<g>
					<path class="st14" d="M247.8,350.9c-0.1,0-0.1-0.1-0.1-0.1c-1.6-5.7-3-11.4-4.2-17.2l14.9,8.5c-1.6,2-3.3,3.7-5.2,5.3
						c-1.6,1.3-3.4,2.5-5.1,3.5C247.9,350.9,247.9,351,247.8,350.9z"/>
					<path class="st14" d="M242.1,326.5c-2.6-14.8-4-29.9-4-45.1c0-3.8,0.1-7.8,0.3-11.6l26.7-2.9l-5.5,67.4L242.1,326.5z"/>
				</g>
			</g>
		</g>
		<path class="st4" d="M282.5,244.7c-0.9-0.1-1.3-4.5-0.9-10c0.4-5.5,1.4-9.8,2.2-9.8c0.9,0.1,1.3,4.5,0.9,10
			C284.5,240.4,283.4,244.8,282.5,244.7z"/>
		<path class="st4" d="M276.1,334.3c-0.9-0.1-1.3-4.5-0.9-10c0.4-5.5,1.4-9.8,2.2-9.8c0.9,0.1,1.3,4.5,0.9,10
			C277.9,330,276.9,334.4,276.1,334.3z"/>
		<path class="st4" d="M276.3,161.5c3.3-0.6,6.8-1.1,10.5-1.4c16.9-1.7,31.8,0.4,43.8,3.4c-0.6,31.1-1.1,62.2-1.6,93.3
			c-16-1.4-35.1-1.9-56.5,0.5c-13.4,1.6-25.6,3.9-36.5,6.6"/>
		<path class="st4" d="M239.3,328.3c3.5,2,8.8,5,15.4,8.5c4.4,2.4,9.7,5.3,10.6,5.7c4.2,2.1,17.2,3.3,62.7-39.1
			c0.3-15.5,0.6-31,1-46.5"/>
		<g>
			<path class="st2" d="M314.3,51.9c-1.1,1-2.5,1.4-4,1.2c-2.7-0.5-6.2-1.8-9.6-4.3c-1.4-1-2.5-2.2-3.4-3.2c4.1-0.6,8.8-1,14.3-0.7
				c2.4,0.1,4.7,0.4,6.9,0.7c-0.5,1.1-1.3,2.8-2.5,4.4C315.3,50.6,314.7,51.2,314.3,51.9z"/>
			<path class="st2" d="M323.7,57.3l-2.2,9.9c-0.4,1.7,0.6,3.2,2,3.7l2.3,0.7c1.8,0.6,3.8-0.7,3.9-2.8l0.8-10.3
				c0.1-1.4-0.7-2.8-2-3.2c-0.3-0.1-0.6-0.2-0.9-0.3l0,0C325.9,54.4,324.1,55.6,323.7,57.3z"/>
		</g>
		<line class="st4" x1="289.8" y1="92.9" x2="302.6" y2="107.1"/>
		<line class="st4" x1="293.5" y1="58.5" x2="290.9" y2="53.9"/>
		<path class="st3" d="M303.8,365.4c-0.1-0.2-14.5,20.7-14.5,20.7"/>
		<path class="st4" d="M233.7,301.8c2.1,0.5,4.6,1.3,7.2,2.3c4.3,1.7,7.6,3.8,10,5.6"/>
		<g>
			<g>
				<path class="st16" d="M250.9,362.4c2.3,4.8,5.5,10.4,10,16.2c6.8,8.8,14.1,14.8,19.5,18.5c-2.5-7.2-5-14.6-7.6-21.8L250.9,362.4
					z"/>
				<path class="st16" d="M283,86.1c0-0.1,0-0.2,0-0.3c1-4.7,2.5-10.3,5-16.4c2.3-5.6,4.9-10.3,7.4-14.2c0.5-0.7,1.6-0.3,1.5,0.5
					c-0.4,3.8-0.9,7.8-1.5,11.8c-2.1,13.4-5.4,25.3-9,35.3c-0.3,0.8-1.5,0.7-1.6-0.2C284.3,97.1,283.7,91.6,283,86.1z"/>
				<path class="st16" d="M325.4,69.2c-1.6,0-3-0.6-3-1.3s1.4-1.3,3-1.3c1.6,0,3,0.6,3,1.3C328.4,68.6,327.1,69.2,325.4,69.2z"/>
			</g>
			<g>
				<path class="st17" d="M250.9,362.4c2.3,4.8,5.5,10.4,10,16.2c6.8,8.8,14.1,14.8,19.5,18.5c-2.5-7.2-5-14.6-7.6-21.8L250.9,362.4
					z"/>
				<path class="st8" d="M283,86.1c0-0.1,0-0.2,0-0.3c1-4.7,2.5-10.3,5-16.4c2.3-5.6,4.9-10.3,7.4-14.2c0.5-0.7,1.6-0.3,1.5,0.5
					c-0.4,3.8-0.9,7.8-1.5,11.8c-2.1,13.4-5.4,25.3-9,35.3c-0.3,0.8-1.5,0.7-1.6-0.2C284.3,97.1,283.7,91.6,283,86.1z"/>
				<path class="st3" d="M325.4,69.2c-1.6,0-3-0.6-3-1.3s1.4-1.3,3-1.3c1.6,0,3,0.6,3,1.3C328.4,68.6,327.1,69.2,325.4,69.2z"/>
			</g>
			<g>
				<path class="st18" d="M250.9,362.4c2.3,4.8,5.5,10.4,10,16.2c6.8,8.8,14.1,14.8,19.5,18.5c-2.5-7.2-5-14.6-7.6-21.8L250.9,362.4
					z"/>
				<path class="st18" d="M283,86.1c0-0.1,0-0.2,0-0.3c1-4.7,2.5-10.3,5-16.4c2.3-5.6,4.9-10.3,7.4-14.2c0.5-0.7,1.6-0.3,1.5,0.5
					c-0.4,3.8-0.9,7.8-1.5,11.8c-2.1,13.4-5.4,25.3-9,35.3c-0.3,0.8-1.5,0.7-1.6-0.2C284.3,97.1,283.7,91.6,283,86.1z"/>
				<path class="st18" d="M325.4,69.2c-1.6,0-3-0.6-3-1.3s1.4-1.3,3-1.3c1.6,0,3,0.6,3,1.3C328.4,68.6,327.1,69.2,325.4,69.2z"/>
			</g>
		</g>
		<path class="st4" d="M283,86c-0.9,4.8-2,11.9-3.1,20.7c-0.7,5.3-1,8.7-1.3,12.2c-0.7,7-1.8,17.1-4.1,29.6"/>
		<path class="st4" d="M272.9,375.4c3.3,1,10.3,3.7,16.3,10.6c9,10.4,9.3,23,9.3,26.1"/>
		<path class="st4" d="M297,100.8c-4.9,37.5-14.2,115.4-17.5,156.8c-3.3,40.9-5.4,80.2-6.6,117.7"/>
		<g>
			<g>
				<ellipse class="st19" cx="328.4" cy="121.1" rx="25.8" ry="28.1"/>
				<ellipse class="st3" cx="328.4" cy="121.1" rx="19.6" ry="21.4"/>
				<path class="st20" d="M328.2,123.3c1.2,0,2-1,2-2.3c0-1.2-0.9-2.3-2-2.3s-2,1-2,2.3C326.2,122.2,327.1,123.3,328.2,123.3z"/>
				<path class="st21" d="M346.1,121.1c0,0.7,0,1.4-0.2,2.4c0,0.3-0.1,0.6-0.2,0.9c-0.1,0.3-0.3,0.6-0.5,0.9l-1.4,1.1
					c-0.6,0.4-1.3,0.4-1.8,0l-4.8-4.1c-0.8-0.6-0.8-1.9,0-2.5l4.8-4.1c0.6-0.4,1.3-0.4,1.8,0l1.4,1.1c0.3,0.2,0.5,0.5,0.5,0.9
					c0.1,0.3,0.1,0.6,0.2,0.9C346.1,119.6,346.1,120.4,346.1,121.1z"/>
				<path class="st21" d="M333.8,139c-0.6,0.2-1.4,0.4-2.1,0.6c-0.3,0-0.6,0.1-0.9,0.1s-0.7-0.1-1-0.3l-1.5-1
					c-0.6-0.4-0.8-1.1-0.6-1.9l2.1-6.1c0.3-0.9,1.4-1.3,2.2-0.7l5.1,3.6c0.6,0.4,0.8,1.1,0.6,1.9l-0.6,1.8c-0.1,0.3-0.3,0.6-0.6,0.8
					c-0.2,0.1-0.5,0.3-0.8,0.4C335.1,138.6,334.4,138.8,333.8,139z"/>
				<path class="st21" d="M314.2,132.5c-0.4-0.5-0.9-1.2-1.3-2c-0.1-0.3-0.3-0.5-0.4-0.8s-0.2-0.7-0.1-1l0.5-1.9
					c0.2-0.7,0.8-1.1,1.5-1.1l6.2,0.2c1,0,1.6,1,1.4,2l-1.6,6.4c-0.2,0.7-0.8,1.2-1.5,1.1h-1.7c-0.3,0-0.7-0.1-0.9-0.4
					c-0.2-0.2-0.4-0.4-0.6-0.6C315,133.6,314.5,133,314.2,132.5z"/>
				<path class="st21" d="M314.3,109.7c0.4-0.5,0.9-1.1,1.5-1.9c0.2-0.2,0.4-0.4,0.6-0.6c0.3-0.2,0.6-0.3,0.9-0.4h1.7
					c0.7,0,1.3,0.5,1.5,1.1l1.6,6.4c0.2,0.9-0.5,2-1.4,2l-6.2,0.2c-0.7,0-1.3-0.4-1.5-1.1l-0.5-1.9c-0.1-0.3-0.1-0.7,0.1-1
					c0.1-0.3,0.2-0.5,0.4-0.8C313.4,111,313.9,110.2,314.3,109.7z"/>
				<path class="st21" d="M333.8,103c0.6,0.2,1.4,0.5,2.1,0.9c0.3,0.1,0.5,0.3,0.8,0.4c0.3,0.2,0.5,0.4,0.6,0.8l0.6,1.8
					c0.2,0.7,0,1.4-0.6,1.9l-5.1,3.6c-0.8,0.5-1.8,0.2-2.2-0.7l-2.1-6.2c-0.2-0.7,0-1.4,0.6-1.9l1.5-1c0.3-0.2,0.6-0.3,1-0.2
					c0.3,0,0.6,0.1,0.9,0.1C332.5,102.6,333.2,102.8,333.8,103z"/>
			</g>
			<g>
				<ellipse class="st19" cx="328.5" cy="348.5" rx="25.8" ry="28.1"/>
				<ellipse class="st3" cx="328.5" cy="348.5" rx="19.6" ry="21.4"/>
				<path class="st20" d="M328.3,350.8c1.2,0,2-1,2-2.3s-0.9-2.3-2-2.3c-1.2,0-2,1-2,2.3S327.2,350.8,328.3,350.8z"/>
				<path class="st21" d="M346.2,348.5c0,0.7,0,1.4-0.2,2.4c0,0.3-0.1,0.6-0.2,0.9c-0.1,0.3-0.3,0.6-0.5,0.9l-1.4,1.1
					c-0.6,0.4-1.3,0.4-1.8,0l-4.8-4.1c-0.8-0.6-0.8-1.9,0-2.5l4.8-4.1c0.6-0.4,1.3-0.4,1.8,0l1.4,1.1c0.3,0.2,0.5,0.5,0.5,0.9
					c0.1,0.3,0.1,0.6,0.2,0.9C346.2,347,346.2,347.9,346.2,348.5z"/>
				<path class="st21" d="M333.8,366.5c-0.6,0.2-1.4,0.4-2.1,0.6c-0.3,0-0.6,0.1-0.9,0.1s-0.7-0.1-1-0.3l-1.5-1
					c-0.6-0.4-0.8-1.1-0.6-1.9l2.1-6.1c0.3-0.9,1.4-1.3,2.2-0.7l5.1,3.6c0.6,0.4,0.8,1.1,0.6,1.9l-0.6,1.8c-0.1,0.3-0.3,0.6-0.6,0.8
					c-0.2,0.1-0.5,0.3-0.8,0.4C335.2,366,334.5,366.3,333.8,366.5z"/>
				<path class="st21" d="M314.3,360c-0.4-0.5-0.9-1.2-1.3-2c-0.1-0.3-0.3-0.5-0.4-0.8c-0.1-0.3-0.2-0.7-0.1-1l0.5-1.9
					c0.2-0.7,0.8-1.1,1.5-1.1l6.2,0.2c1,0,1.6,1,1.4,2l-1.6,6.3c-0.2,0.7-0.8,1.2-1.5,1.1h-1.7c-0.3,0-0.7-0.1-0.9-0.4
					c-0.2-0.2-0.4-0.4-0.6-0.6C315.1,361.1,314.6,360.5,314.3,360z"/>
				<path class="st21" d="M314.4,337.2c0.4-0.5,0.9-1.1,1.5-1.9c0.2-0.2,0.4-0.4,0.6-0.6c0.3-0.2,0.6-0.3,0.9-0.4h1.7
					c0.7,0,1.3,0.5,1.5,1.1l1.6,6.4c0.2,0.9-0.5,2-1.4,2l-6.2,0.2c-0.7,0-1.3-0.4-1.5-1.1l-0.5-1.9c-0.1-0.3-0.1-0.7,0.1-1
					c0.1-0.3,0.2-0.5,0.4-0.8C313.5,338.5,314,337.7,314.4,337.2z"/>
				<path class="st21" d="M333.9,330.5c0.6,0.2,1.4,0.5,2.1,0.9c0.3,0.1,0.5,0.3,0.8,0.4c0.3,0.2,0.5,0.4,0.6,0.8l0.6,1.8
					c0.2,0.7,0,1.4-0.6,1.9l-5.1,3.6c-0.8,0.5-1.8,0.2-2.2-0.7l-2.1-6.2c-0.2-0.7,0-1.4,0.6-1.9l1.5-1c0.3-0.2,0.6-0.3,1-0.2
					c0.3,0,0.6,0.1,0.9,0.1C332.6,330.1,333.3,330.3,333.9,330.5z"/>
			</g>
		</g>
		<g>
			<path class="st22" d="M272.8,168.3l3.2,5c1.6-2.1,3.1-4.1,4.7-6.1c0-0.1,0.3-1.6-0.7-2.7c-0.8-0.9-1.9-0.9-2.1-1L272.8,168.3"/>
			<path class="st2" d="M266,180.9c-0.2-1.3-0.2-2.9-0.1-4.2c0.1-3.6,0.2-7.6,2.3-9.1c1.6-1.1,3.8-0.3,5,0.7
				c2.5,2.2,3.4,6.9,2.2,10.2C272.3,179.2,269.2,180,266,180.9z"/>
		</g>
	</g>
	<g>
		<rect x="120.2" y="441.1" class="st0" width="120" height="9.2"/>
		<g>
			<path class="st19" d="M125.3,446.5l-0.1,16.1c0,2.8-2,5.1-4.7,5.1H111c-2.5,0-4.7-2.2-4.7-5.1v-52.7L125.3,446.5z"/>
			<path class="st19" d="M230.8,446.5l0.1,16.1c0,2.8,2,5.1,4.7,5.1h9.5c2.5,0,4.7-2.2,4.7-5.1v-52.7L230.8,446.5z"/>
		</g>
		<path class="st5" d="M249.7,408.6c0.1-3.8-0.5-6.9-0.9-8.9c-0.3-3.8-1-8.2-2.1-13.1c-1.3-5.1-2.7-9.5-4.2-13.1
			c-1.9-5.8-4.4-11.9-7.4-18.5c-1.8-3.9-3.7-7.7-5.5-11.2c-2.5-4.8-7-8-11.9-8.8c-1.5-0.2-3-0.4-4.5-0.6c-12.5-1.8-24.1-2.6-35-2.7
			c-10.9,0.1-22.6,0.9-35,2.7c-1.6,0.2-3,0.4-4.5,0.6c-4.4,0.7-8.2,3.3-10.9,7c-0.1,2.2-0.5,5.5-1.8,9.3c-1.3,3.6-2.7,5.8-4.9,9.5
			c-1.7,2.9-4.4,7.2-7.3,12.8c-1.5,3.6-3,8-4.2,13.1c-1.2,4.9-1.7,9.3-2.1,13.1c-0.5,2-1,5.1-0.9,8.9c0,3.1,0.5,5.3,2.1,13.4
			c0.9,4.4,1.6,7.9,2.1,10.2c-0.1,1.9,0.1,5.1,1.4,8.6c0.2,0.4,0.3,0.9,0.5,1.3c1.2,2.7,3.7,4.4,6.4,4.4h59.1h59.1
			c2.7,0,5.2-1.7,6.4-4.4c0.2-0.4,0.3-0.9,0.5-1.3c1.3-3.5,1.5-6.7,1.4-8.6c0.5-2.3,1.3-6,2.1-10.2
			C249.2,413.9,249.6,411.8,249.7,408.6z"/>
		<path class="st4" d="M136.3,335.7c0.4,1.2,0.7,2.4,1,3.9c0.5,2.3,0.6,4.5,0.6,6.2"/>
		<path class="st4" d="M107,414.9c0.7-3.5,2.6-11.1,8.7-17.4c2.5-2.7,5.1-4.4,7.3-5.5"/>
		<path class="st4" d="M142.9,407.9c-2.3,0.2-5.7,0.7-9.5,2.4c-2.5,1.1-3.8,2-5.2,2.8c-1,0.5-2,1.1-3.3,1.5
			c-6.5,2.3-13.5-1.6-15.5-8.7v-0.1c-1-3.5-1.5-6.7-1.6-9.3"/>
		<path class="st4" d="M226.9,355.3c0.8,0.3,1.7,0.9,2.6,1.5c1.5,1,2.6,1.9,3.5,2.9l-1.5-2.2c-5.8-8.6-14.8-13.8-24.5-14.4
			c-1.6-0.1-3.3-0.2-5-0.2c-8.2-0.3-16.2-0.5-23.9-0.5s-15.7,0.2-23.9,0.5c-1.6,0.1-3.4,0.1-5,0.2c-9.7,0.5-18.7,5.8-24.5,14.4
			l-1.5,2.2c0.9-0.9,2-1.9,3.5-2.9c1-0.6,1.8-1.1,2.6-1.5"/>
		<path class="st4" d="M219.8,335.7c-0.4,1.2-0.7,2.4-1,3.9c-0.5,2.3-0.6,4.5-0.6,6.2"/>
		<path class="st4" d="M224.2,389.1c-1.5,2.2-3.1,4.7-4.8,7c-1.3,1.7-2.5,3.2-3.6,4.8c-0.3,0.4-1,1.4-2,2c-0.8,0.4-1.7,0.7-2.7,0.7
			c-11,0-21.9,0-32.9,0s-21.9,0-32.9,0c-1,0-1.8-0.2-2.7-0.7c-1.2-0.6-1.7-1.6-2-2c-1.2-1.6-2.4-3.1-3.6-4.8c-1.7-2.3-3.3-4.8-4.8-7
			"/>
		<path class="st4" d="M236.6,381.9l-4.1,12.4c-1.9,6-6.3,10.5-11.8,12.5l0,0c-2.1,0.7-4.5,1.2-6.7,1.2h-35.9h-35.9
			c-2.3,0-4.6-0.4-6.7-1.2l0,0c-5.5-1.9-9.9-6.5-11.8-12.5l-4.1-12.4"/>
		<path class="st4" d="M249.2,414.9c-0.7-3.5-2.6-11.1-8.7-17.4c-2.5-2.7-5.1-4.4-7.3-5.5"/>
		<path class="st4" d="M213.2,407.9c2.3,0.2,5.7,0.7,9.5,2.4c2.5,1.1,3.8,2,5.2,2.8c1,0.5,2,1.1,3.3,1.5c6.5,2.3,13.5-1.6,15.5-8.7
			v-0.1c1-3.5,1.5-6.7,1.6-9.3"/>
		<path class="st4" d="M178,386.2h31.4l-4.2,7.1c-1.7,3-4.8,4.8-8,4.8H178h-19.3c-3.2,0-6.2-1.8-8-4.8l-4.2-7.1H178z"/>
		<path class="st4" d="M230.8,446.5l-3.3-4c-4-4.9-9.6-7.7-15.5-7.7H178h-33.9c-5.9,0-11.5,2.8-15.5,7.7l-3.3,4"/>
		<polygon class="st21" points="178,345.4 190.9,345.4 190.9,342.5 178,342.5 165.2,342.5 165.2,345.4 		"/>
		<path class="st17" d="M123,359.5c-1.3,2.8-2.8,7-3.5,12.4c-0.5,3.9-0.3,7.3,0,9.9c0.9,1.2,2.1,2.4,3.9,3.7
			c3.3,2.4,6.6,3.3,8.6,3.5c-2.2-3.4-5.1-8.6-7-15.8C123.5,367.9,123.1,363.1,123,359.5z"/>
		<path class="st17" d="M233.1,359.5c1.3,2.8,2.8,7,3.5,12.4c0.5,3.9,0.3,7.3,0,9.9c-0.9,1.2-2.1,2.4-3.9,3.7
			c-3.3,2.4-6.6,3.3-8.6,3.5c2.2-3.4,5.1-8.6,7-15.8C232.6,367.9,233,363.1,233.1,359.5z"/>
		<path class="st2" d="M128.6,424.9l-4.3,3.3c-0.6,0.4-1.4,0.7-2,0.7h-8.1c1-1.1,2.7-2.6,5.2-3.6
			C123.5,423.5,127.2,424.5,128.6,424.9z"/>
		<path class="st2" d="M227.5,424.9l4.3,3.3c0.6,0.4,1.4,0.7,2,0.7h8.1c-1-1.1-2.7-2.6-5.2-3.6C232.6,423.5,228.9,424.5,227.5,424.9
			z"/>
		<g>
			<path class="st13" d="M178,347.8h24.1c8.7,0,17.3,2.6,24.7,7.5l0,0l0,0c-3.6,9.8-12.1,16.2-21.7,16.2H178h-27.1
				c-9.6,0-18.2-6.4-21.7-16.2l0,0l0,0c7.5-4.9,16-7.5,24.7-7.5H178z"/>
			<path class="st2" d="M125.9,351.4c1.3-3.7,1.6-7,1.8-9.3c-0.4,0.5-0.8,1.2-1.1,1.7c-1.8,3.5-3.8,7.2-5.5,11.2
				c-3,6.6-5.4,12.8-7.4,18.5c2.9-5.5,5.4-9.8,7.3-12.8C123.1,357.2,124.6,355,125.9,351.4z"/>
			<path class="st2" d="M230.2,351.4c-1.3-3.7-1.6-7-1.8-9.3c0.4,0.5,0.8,1.2,1.1,1.7c1.8,3.5,3.8,7.2,5.5,11.2
				c3,6.6,5.4,12.8,7.4,18.5c-2.9-5.5-5.4-9.8-7.3-12.8C233,357.2,231.5,355,230.2,351.4z"/>
		</g>
		<g>
			<path class="st3" d="M103.8,384.3c0.1,0.3,4.4,9.8,4.4,9.8l3.9-6.2l-2.8-5.4L103.8,384.3z"/>
			<path class="st2" d="M110.9,378.5c0-3.3-3.7-5.9-8.3-5.9c-4.6,0-8.3,2.7-8.3,5.9c0,3.2,3.7,5.9,8.3,5.9S110.9,381.7,110.9,378.5z
				"/>
			<ellipse class="st21" cx="102.7" cy="378.5" rx="6.4" ry="3.8"/>
		</g>
		<g>
			<path class="st3" d="M252.4,384.3c-0.1,0.3-4.4,9.8-4.4,9.8l-3.9-6.2l2.8-5.4L252.4,384.3z"/>
			<path class="st2" d="M245.1,378.5c0-3.3,3.7-5.9,8.3-5.9c4.6,0,8.3,2.7,8.3,5.9c0,3.2-3.7,5.9-8.3,5.9
				C248.8,384.3,245.1,381.7,245.1,378.5z"/>
			<ellipse class="st21" cx="253.5" cy="378.5" rx="6.4" ry="3.8"/>
		</g>
		<line class="st4" x1="121.4" y1="415.2" x2="235.3" y2="415.2"/>
		<g>
			<path class="st2" d="M215.3,438.7h-11.9c-1.9,0-3.6,1.8-3.6,3.9v5c0,2.1,1.6,3.9,3.6,3.9h11.9c1.9,0,3.6-1.8,3.6-3.9v-5
				C218.8,440.5,217.2,438.7,215.3,438.7z"/>
			<path class="st23" d="M212.5,445.2c0-1.9-1.5-3.5-3.2-3.5c-1.7,0-3.2,1.6-3.2,3.5c0,1.9,1.5,3.5,3.2,3.5
				C211.1,448.7,212.5,447.1,212.5,445.2z"/>
		</g>
	</g>
</g>
</svg>
